<svg width="774" height="580" viewBox="0 0 774 580" fill="none" xmlns="http://www.w3.org/2000/svg">
<path d="M471.402 222.001C472.108 228.366 472.585 234.805 472.823 241.306L471.324 241.361C471.441 244.559 471.5 247.772 471.5 251C471.5 254.228 471.441 257.441 471.324 260.639L472.823 260.694C472.585 267.195 472.108 273.634 471.402 279.999L469.911 279.834C469.199 286.257 468.252 292.605 467.078 298.869L468.553 299.145C467.357 305.529 465.928 311.827 464.275 318.028L462.826 317.642C461.165 323.873 459.277 330.006 457.172 336.031L458.588 336.526C456.449 342.649 454.086 348.661 451.511 354.551L450.137 353.95C447.557 359.851 444.762 365.628 441.763 371.273L443.088 371.977C440.049 377.695 436.801 383.278 433.356 388.714L432.089 387.911C428.644 393.344 425.001 398.63 421.169 403.756L422.37 404.654C418.499 409.834 414.435 414.853 410.192 419.699L409.064 418.711C404.83 423.546 400.416 428.208 395.832 432.685L396.88 433.758C392.258 438.272 387.465 442.6 382.512 446.73L381.551 445.578C376.622 449.688 371.534 453.6 366.298 457.303L367.164 458.528C361.896 462.254 356.479 465.769 350.924 469.063L350.159 467.772C344.648 471.04 339 474.087 333.228 476.904L333.885 478.252C328.097 481.076 322.183 483.669 316.154 486.02L315.609 484.623C309.655 486.945 303.588 489.029 297.42 490.864L297.847 492.301C291.687 494.134 285.425 495.72 279.074 497.048L278.767 495.579C272.529 496.883 266.204 497.937 259.801 498.729L259.986 500.218C253.627 501.005 247.192 501.537 240.692 501.802L240.63 500.304C237.436 500.434 234.225 500.5 231 500.5C227.775 500.5 224.564 500.434 221.37 500.304L221.309 501.802C214.808 501.537 208.373 501.005 202.014 500.218L202.199 498.729C195.796 497.937 189.471 496.883 183.233 495.579L182.926 497.048C176.575 495.72 170.313 494.134 164.153 492.301L164.58 490.864C158.412 489.029 152.345 486.945 146.391 484.623L145.846 486.02C139.817 483.669 133.903 481.076 128.115 478.252L128.772 476.904C123 474.087 117.352 471.04 111.841 467.772L111.076 469.063C105.521 465.769 100.104 462.254 94.836 458.528L95.7021 457.303C90.4657 453.6 85.3775 449.688 80.4485 445.578L79.4879 446.73C74.5348 442.6 69.7416 438.272 65.1198 433.758L66.1679 432.685C61.5843 428.208 57.1701 423.546 52.9362 418.711L51.8077 419.699C47.5645 414.853 43.5014 409.834 39.6296 404.654L40.831 403.756C36.9992 398.63 33.3557 393.344 29.9113 387.911L28.6444 388.714C25.1987 383.278 21.9512 377.695 18.9124 371.977L20.237 371.273C17.2378 365.628 14.4431 359.851 11.8634 353.95L10.489 354.551C7.91356 348.661 5.5511 342.649 3.41178 336.526L4.82783 336.031C2.72271 330.006 0.834905 323.873 -0.825742 317.642L-2.27515 318.028C-3.92786 311.827 -5.35688 305.529 -6.55262 299.145L-5.07826 298.869C-6.25159 292.605 -7.19902 286.257 -7.91139 279.834L-9.40225 279.999C-10.1083 273.634 -10.5848 267.195 -10.8228 260.694L-9.32385 260.639C-9.44093 257.441 -9.5 254.228 -9.5 251C-9.5 247.772 -9.44093 244.559 -9.32385 241.361L-10.8228 241.306C-10.5848 234.805 -10.1083 228.366 -9.40225 222.001L-7.9114 222.166C-7.19902 215.743 -6.25159 209.395 -5.07827 203.131L-6.55263 202.855C-5.35688 196.471 -3.92786 190.173 -2.27515 183.972L-0.825739 184.358C0.834907 178.127 2.72271 171.994 4.82783 165.969L3.41178 165.474C5.5511 159.351 7.91358 153.339 10.489 147.449L11.8634 148.05C14.4431 142.149 17.2378 136.372 20.237 130.727L18.9124 130.023C21.9512 124.305 25.1988 118.722 28.6445 113.286L29.9114 114.089C33.3558 108.656 36.9993 103.37 40.8311 98.2436L39.6296 97.3456C43.5015 92.1655 47.5645 87.1469 51.8078 82.3011L52.9363 83.2893C57.1701 78.4542 61.5844 73.7924 66.168 69.3153L65.1198 68.2422C69.7417 63.7277 74.5348 59.3996 79.488 55.2696L80.4486 56.4217C85.3775 52.312 90.4658 48.3997 95.7022 44.6966L94.8361 43.4719C100.104 39.7464 105.521 36.231 111.076 32.9374L111.841 34.2277C117.352 30.9603 123 27.9126 128.772 25.0962L128.115 23.7481C133.903 20.9239 139.817 18.3306 145.846 15.9797L146.391 17.3772C152.345 15.0551 158.412 12.9711 164.58 11.1363L164.153 9.69853C170.313 7.8659 176.575 6.28023 182.926 4.95249L183.233 6.42075C189.471 5.11678 195.796 4.06319 202.199 3.27054L202.014 1.78191C208.373 0.994648 214.808 0.463146 221.308 0.1976L221.37 1.69635C224.564 1.56586 227.775 1.5 231 1.5C234.225 1.5 237.436 1.56586 240.63 1.69635L240.691 0.197599C247.192 0.463143 253.627 0.994643 259.986 1.7819L259.801 3.27054C266.204 4.06319 272.529 5.11677 278.767 6.42074L279.074 4.95248C285.425 6.28022 291.687 7.8659 297.847 9.69853L297.42 11.1363C303.588 12.9711 309.655 15.0552 315.609 17.3772L316.154 15.9797C322.183 18.3306 328.097 20.9239 333.885 23.7481L333.228 25.0962C339 27.9127 344.648 30.9603 350.159 34.2277L350.924 32.9375C356.479 36.231 361.896 39.7464 367.164 43.4719L366.298 44.6966C371.534 48.3998 376.623 52.312 381.551 56.4217L382.512 55.2697C387.465 59.3996 392.258 63.7277 396.88 68.2423L395.832 69.3153C400.416 73.7925 404.83 78.4543 409.064 83.2893L410.192 82.3012C414.436 87.1469 418.499 92.1656 422.37 97.3456L421.169 98.2437C425.001 103.37 428.644 108.656 432.089 114.089L433.356 113.286C436.801 118.722 440.049 124.305 443.088 130.023L441.763 130.727C444.762 136.372 447.557 142.149 450.137 148.05L451.511 147.449C454.086 153.339 456.449 159.351 458.588 165.474L457.172 165.969C459.277 171.994 461.165 178.127 462.826 184.358L464.275 183.972C465.928 190.173 467.357 196.471 468.553 202.855L467.078 203.131C468.252 209.395 469.199 215.743 469.911 222.166L471.402 222.001Z" stroke="#130015" stroke-width="3" stroke-dasharray="20 20"/>
<ellipse cx="70" cy="295" rx="242" ry="251" fill="#F7931A"/>
<g clip-path="url(#clip0_34_262)">
<path d="M274.037 383.953L300.774 372.691L312.241 396.22L284.145 407.698L274.037 383.953Z" fill="#FFB6B6"/>
<path opacity="0.1" d="M274.037 383.953L300.774 372.691L312.241 396.22L284.145 407.698L274.037 383.953Z" fill="black"/>
<path d="M277.838 374.986L304.214 405.403C304.214 405.403 285.865 463.366 267.517 468.531C249.168 473.696 215.337 498.948 215.337 498.948L172.906 471.401L193.548 440.984C193.548 440.984 243.434 372.691 256.622 372.691C269.81 372.691 277.838 374.986 277.838 374.986V374.986Z" fill="#170019"/>
<path d="M242.201 573.267H180.802L176.92 568.073L161.071 546.868L157.424 541.99C157.424 541.99 143.663 516.739 146.53 493.783C149.397 470.827 179.214 465.662 179.214 465.662H180.441L216.943 497.766L214.764 527.643L226.324 546.868L242.201 573.267Z" fill="#2F2E41"/>
<path d="M193.376 573.267H176.92V548.877L193.376 573.267Z" fill="#2F2E41"/>
<path d="M645.743 402.667L651.881 440.986L613.102 441.487V408.172L645.743 402.667Z" fill="#A0616A"/>
<path d="M738.114 536.239L736.067 546.868L730.987 573.267H628.928C629.725 567.35 630.815 558.834 631.979 549.64C632.093 548.722 632.214 547.798 632.328 546.868C635.247 523.757 638.441 497.605 638.441 497.605L651.858 499.235L677.891 502.391L688.498 503.677L716.904 507.126C731.067 508.842 740.809 522.213 738.114 536.239Z" fill="#F2F2F2"/>
<path d="M692.753 573.267H637.397C638.24 572.274 638.716 571.7 638.716 571.7L655.31 568.957L689.502 563.31C689.502 563.31 691.061 567.345 692.753 573.267Z" fill="#2F2E41"/>
<path d="M616.6 573.267H533.005C533.836 571.614 534.696 569.956 535.579 568.303C536.761 566.093 538.022 564.125 539.358 562.375C540.247 561.21 541.164 560.142 542.11 559.167C544.891 556.303 547.919 554.22 551.107 552.791C562.489 547.666 575.901 550.805 587.323 555.913C591.612 557.829 595.62 560.022 599.135 562.157C605.327 565.921 610 569.514 611.99 571.109C612.678 571.654 613.045 571.97 613.045 571.97L616.6 573.267Z" fill="#2F2E41"/>
<path d="M550.281 573.267H538.423L541.548 569.634L543.314 567.58L544.071 568.194L550.281 573.267Z" fill="#FFB6B6"/>
<path d="M696.801 573.267H594.691L599.135 562.157L605.241 546.868L608.309 539.189L605.774 528.394C605.774 528.394 604.524 527.511 602.621 525.921C595.838 520.297 580.74 505.812 584.209 490.936C588.154 474.006 593.108 441.013 594.157 433.902C594.289 433.013 594.358 432.531 594.358 432.531L609.094 428.915L609.582 428.795L611.164 428.405H650.637L679.668 448.083L679.662 448.29L677.891 502.391L677.134 525.536C677.134 525.536 676.222 528.876 676.44 534.064C676.583 537.623 677.254 542.047 679.112 546.868C681.079 551.993 684.387 557.56 689.817 562.994C693.917 567.098 695.907 570.553 696.801 573.267Z" fill="#170019"/>
<path d="M688.498 503.677C687.529 511.631 686.6 517.284 686.6 517.284L676.44 534.064L668.688 546.868L655.31 568.957L653.349 572.2L651.95 573.267H609.983L611.99 571.109L631.979 549.64L634.565 546.868L638.756 542.363L651.858 499.235L667.3 448.405C667.3 448.405 673.556 446.224 679.662 448.29C682.873 449.375 686.05 451.636 688.235 456.02C692.415 464.388 690.379 488.319 688.498 503.677Z" fill="#170019"/>
<path d="M614.674 502.288L602.621 525.921L591.938 546.868L587.323 555.913L585.505 559.482L569.926 573.267H534.65L540.465 566.036L542.626 563.339L551.107 552.791L555.866 546.868L568.785 530.787L572.23 457.548C572.802 445.401 582.049 435.581 594.085 433.915C594.111 433.911 594.135 433.907 594.157 433.902C598.068 433.116 604.284 432.887 609.094 437.541C609.261 437.696 609.421 437.862 609.582 438.035C610.39 438.89 611.153 439.894 611.853 441.07C611.921 441.185 611.99 441.306 612.053 441.426C612.254 441.794 612.449 442.195 612.627 442.626C618.768 456.939 614.674 502.288 614.674 502.288L614.674 502.288Z" fill="#170019"/>
<path d="M625.192 419.722C640.589 419.722 653.071 407.23 653.071 391.819C653.071 376.409 640.589 363.916 625.192 363.916C609.795 363.916 597.313 376.409 597.313 391.819C597.313 407.23 609.795 419.722 625.192 419.722Z" fill="#A0616A"/>
<path d="M636.752 402.789C636.752 402.789 633.862 394.82 632.223 390.685C630.584 386.549 631.653 381.183 631.653 381.183C631.653 381.183 609.784 376.351 601.22 381.14C592.656 385.929 592.08 361.843 600.771 355.287C600.771 355.287 603.099 359.336 602.196 360.5L601.292 361.664C601.292 361.664 607.87 347.742 618.977 347.045C618.977 347.045 624.241 351.249 622.257 352.637C620.273 354.024 636.884 344.792 639.774 352.761C639.774 352.761 650.366 354.65 648.302 358.271L648.476 360.77C648.476 360.77 658.076 359.772 657.392 366.581C657.392 366.581 654.162 365.937 652.097 367.317C650.031 368.697 657.01 375.242 657.01 375.242C657.01 375.242 661.204 402.514 646.658 410.366C646.658 410.366 649.018 397.955 643.466 399.984C637.913 402.013 636.752 402.789 636.752 402.789V402.789Z" fill="#2F2E41"/>
<path d="M757.251 580H104.749C95.5138 580 88 572.48 88 563.236C88 553.992 95.5138 546.472 104.749 546.472H757.251C766.486 546.472 774 553.992 774 563.236C774 572.48 766.486 580 757.251 580Z" fill="#E6E6E6"/>
<path d="M734.997 495.373L733.728 554.624C733.605 560.36 728.925 564.946 723.193 564.946H614.292C608.696 564.946 604.076 560.567 603.77 554.974L600.534 495.723C600.204 489.681 605.01 484.6 611.056 484.6H724.461C730.37 484.6 735.123 489.461 734.997 495.373Z" fill="#3F3D56"/>
<path d="M322.562 398.255C336.952 398.255 348.617 386.58 348.617 372.178C348.617 357.776 336.952 346.101 322.562 346.101C308.173 346.101 296.508 357.776 296.508 372.178C296.508 386.58 308.173 398.255 322.562 398.255Z" fill="#FFB6B6"/>
<path d="M278.984 440.41L281.851 471.401L301.347 550.024L284.504 555.933L256.049 470.253L252.118 435.819L278.984 440.41Z" fill="#FFB6B6"/>
<path d="M271.229 495.373L269.961 554.624C269.838 560.36 265.157 564.946 259.425 564.946H150.525C144.928 564.946 140.308 560.567 140.003 554.974L136.766 495.723C136.436 489.681 141.243 484.6 147.289 484.6H260.694C266.602 484.6 271.356 489.461 271.229 495.373Z" fill="#3F3D56"/>
<path d="M304.451 565.346C315.815 565.346 325.028 561.268 325.028 556.237C325.028 551.206 315.815 547.128 304.451 547.128C293.087 547.128 283.874 551.206 283.874 556.237C283.874 561.268 293.087 565.346 304.451 565.346Z" fill="#FFB6B6"/>
<path d="M238.56 445.148L250.315 382.447C250.315 382.447 282.998 377.856 284.145 388.76C285.292 399.664 283.326 452.953 283.326 452.953L238.56 445.148V445.148Z" fill="#170019"/>
<path d="M312.045 376.278C312.045 376.278 328.162 370.521 334.961 367.423C341.76 364.326 355.266 385.932 355.567 374.521C355.867 363.11 351.2 358.325 351.2 358.325C351.2 358.325 350.035 333.361 324.907 336.482C324.907 336.482 330.434 323.993 312.291 322.062C294.148 320.131 265.923 363.981 268.451 370.534C270.978 377.087 274.009 382.505 266.837 389.511C259.665 396.518 246.236 436.062 256.454 446.704C266.671 457.345 267.342 461.962 260.341 468.582C253.341 475.202 236.793 489.597 254.685 492.096C272.576 494.595 253.048 492.728 266.386 480.986C279.725 469.243 299.188 469.723 291.921 450.882C284.653 432.042 297.279 405.044 295.7 400.948C294.12 396.853 299.239 370.845 299.239 370.845C299.239 370.845 311.154 369.093 312.045 376.278V376.278Z" fill="#2F2E41"/>
<path d="M526.364 497.832C513.499 544.151 461.234 572.341 409.626 560.79C358.038 549.242 326.633 502.325 339.505 456.009C352.364 409.684 404.629 381.492 456.222 393.04C507.828 404.588 539.23 451.51 526.364 497.832H526.364H526.364Z" fill="#F7931A"/>
<path d="M475.403 464.598C477.32 453.093 467.562 446.909 454.218 442.783L458.546 427.198L447.978 424.834L443.764 440.008C440.985 439.386 438.132 438.8 435.296 438.219L439.54 422.945L428.978 420.581L424.646 436.16C422.346 435.69 420.089 435.225 417.898 434.736L417.91 434.688L403.334 431.421L400.523 441.553C400.523 441.553 408.364 443.166 408.199 443.266C412.479 444.225 413.253 446.768 413.123 448.784L408.193 466.538C408.488 466.606 408.87 466.703 409.291 466.854C408.939 466.776 408.563 466.689 408.175 466.606L401.263 491.477C400.74 492.644 399.412 494.395 396.42 493.73C396.526 493.868 388.738 492.009 388.738 492.009L383.492 502.868L397.245 505.946C399.804 506.522 402.311 507.124 404.779 507.691L400.405 523.455L410.962 525.819L415.294 510.223C418.177 510.926 420.977 511.574 423.716 512.185L419.399 527.707L429.968 530.072L434.342 514.338C452.363 517.4 465.915 516.165 471.619 501.534C476.216 489.753 471.39 482.958 461.908 478.527C468.814 477.097 474.015 473.02 475.403 464.598L475.403 464.598V464.598ZM451.256 494.992C447.99 506.773 425.892 500.404 418.728 498.807L424.532 477.924C431.696 479.529 454.669 482.707 451.256 494.992V494.992L451.256 494.992ZM454.525 464.428C451.545 475.144 433.153 469.699 427.187 468.365L432.448 449.424C438.414 450.759 457.628 453.25 454.525 464.428V464.428Z" fill="white"/>
</g>
<defs>
<clipPath id="clip0_34_262">
<rect width="686" height="258" fill="white" transform="translate(88 322)"/>
</clipPath>
</defs>
</svg>
