<svg width="680" height="407" viewBox="0 0 680 407" fill="none" xmlns="http://www.w3.org/2000/svg">
<g clip-path="url(#clip0_34_332)">
<path d="M520.624 401.948C511.918 394.591 506.63 382.971 508.017 371.658C509.404 360.345 517.993 349.944 529.135 347.542C540.276 345.14 552.977 351.79 556.361 362.674C558.223 341.69 560.37 319.828 571.526 301.958C581.627 285.778 599.123 274.201 618.085 272.129C637.047 270.058 657.011 277.881 668.837 292.847C680.663 307.814 683.559 329.572 675.276 346.754C669.175 359.412 657.934 368.832 646.156 376.496C608.098 401.051 562.452 411.037 517.617 404.616L520.624 401.948Z" fill="#B28600"/>
<path d="M650.086 278.314C634.44 291.058 620.087 305.311 607.234 320.867C587.118 345.129 570.84 372.33 558.968 401.524C558.098 403.654 561.557 404.581 562.416 402.475C581.842 355.029 612.854 313.21 652.615 280.843C654.401 279.389 651.857 276.873 650.086 278.314Z" fill="#FFE28B"/>
<path d="M218.903 399.949C230.86 389.845 238.124 373.884 236.219 358.345C234.314 342.807 222.517 328.522 207.214 325.223C191.911 321.923 174.466 331.057 169.818 346.006C167.26 317.185 164.312 287.157 148.99 262.613C135.115 240.39 111.084 224.488 85.04 221.643C58.9959 218.799 31.5748 229.543 15.3321 250.099C-0.91065 270.656 -4.88762 300.54 6.48838 324.14C14.8687 341.526 30.3081 354.465 46.4848 364.991C98.0941 398.573 162.115 412.579 223.033 403.614" fill="#B28600"/>
<path d="M41.0867 230.139C62.5762 247.642 82.2907 267.219 99.9448 288.585C117.602 309.929 133.147 332.935 146.362 357.281C153.748 370.938 160.383 384.987 166.238 399.368C167.432 402.293 162.682 403.566 161.501 400.674C151.131 375.321 138.301 351.047 123.195 328.197C108.163 305.431 90.9579 284.176 71.8213 264.732C60.9976 253.739 49.5776 243.351 37.6132 233.612C35.1608 231.615 38.6545 228.158 41.0866 230.139L41.0867 230.139Z" fill="#FFE28B"/>
<path d="M488.115 405.655H202.828V112.943C202.828 50.6657 253.493 0 315.77 0H375.173C437.449 0 488.115 50.6657 488.115 112.943V405.655Z" fill="#F8B5FF"/>
<path d="M428.713 405.655H202.828V112.943C202.765 89.0795 210.322 65.8195 224.397 46.5493C224.915 45.8421 225.433 45.144 225.967 44.4536C232.775 35.5246 240.876 27.6609 250.004 21.1222C250.52 20.747 251.038 20.3783 251.563 20.0097C259.201 14.724 267.463 10.403 276.162 7.14516C276.679 6.94937 277.204 6.7532 277.73 6.56505C285.597 3.75757 293.752 1.83446 302.045 0.831223C302.559 0.760995 303.087 0.706041 303.615 0.651086C311.696 -0.21296 319.846 -0.21296 327.927 0.651086C328.453 0.706041 328.981 0.760988 329.501 0.831974C337.792 1.83527 345.945 3.75815 353.81 6.56508C354.336 6.75324 354.862 6.9494 355.38 7.14557C363.971 10.3623 372.136 14.6188 379.693 19.82C380.218 20.1807 380.743 20.5493 381.261 20.918C386.377 24.5703 391.183 28.6391 395.63 33.083C399.195 36.6474 402.518 40.447 405.575 44.456C406.107 45.1441 406.625 45.8421 407.143 46.5482C421.218 65.8186 428.775 89.079 428.713 112.943V405.655Z" fill="#170019"/>
<path d="M410.345 274.736C417.252 274.736 422.851 269.137 422.851 262.23C422.851 255.323 417.252 249.724 410.345 249.724C403.438 249.724 397.839 255.323 397.839 262.23C397.839 269.137 403.438 274.736 410.345 274.736Z" fill="#130015"/>
<path d="M464.744 396.888H455.162L450.602 359.927L464.746 359.928L464.744 396.888Z" fill="#FFB8B8"/>
<path d="M448.317 394.15H466.797V405.785H436.681C436.681 404.257 436.982 402.744 437.567 401.333C438.152 399.921 439.009 398.638 440.089 397.558C441.17 396.477 442.452 395.62 443.864 395.035C445.276 394.451 446.789 394.15 448.317 394.15Z" fill="#2F2E41"/>
<path d="M512.422 396.888H502.84L498.281 359.927L512.424 359.928L512.422 396.888Z" fill="#FFB8B8"/>
<path d="M495.995 394.15H514.475V405.785H484.359C484.359 404.257 484.66 402.744 485.245 401.333C485.83 399.921 486.687 398.638 487.767 397.558C488.848 396.477 490.13 395.62 491.542 395.035C492.954 394.451 494.467 394.15 495.995 394.15Z" fill="#2F2E41"/>
<path d="M416.674 264.707C415.985 263.692 415.526 262.537 415.331 261.325C415.136 260.113 415.21 258.873 415.546 257.693C415.882 256.512 416.473 255.419 417.277 254.492C418.081 253.564 419.078 252.824 420.199 252.324L452.774 162.543L468.802 171.291L431.609 257.088C432.325 259.027 432.305 261.161 431.552 263.086C430.799 265.011 429.367 266.593 427.526 267.532C425.685 268.471 423.563 268.702 421.563 268.181C419.563 267.661 417.824 266.425 416.674 264.707Z" fill="#FFB8B8"/>
<path d="M507.527 281.578C506.462 280.967 505.544 280.13 504.838 279.127C504.131 278.123 503.653 276.976 503.438 275.768C503.222 274.56 503.274 273.318 503.59 272.132C503.906 270.946 504.478 269.844 505.266 268.903L495.175 173.93L513.416 174.763L517.61 268.181C519.103 269.61 520.02 271.537 520.188 273.597C520.355 275.657 519.762 277.707 518.519 279.358C517.276 281.009 515.471 282.147 513.445 282.556C511.419 282.965 509.314 282.617 507.527 281.578Z" fill="#FFB8B8"/>
<path d="M478.428 145.914C489.03 145.914 497.625 137.319 497.625 126.716C497.625 116.114 489.03 107.519 478.428 107.519C467.825 107.519 459.23 116.114 459.23 126.716C459.23 137.319 467.825 145.914 478.428 145.914Z" fill="#FFB8B8"/>
<path d="M507.405 259.978H449.529L449.599 259.527C449.703 258.854 459.913 191.966 452.383 170.083C451.627 167.933 451.693 165.579 452.569 163.474C453.445 161.37 455.068 159.664 457.126 158.685H457.127C467.891 153.616 488.553 147.374 505.993 162.522C508.559 164.787 510.563 167.619 511.846 170.793C513.13 173.967 513.657 177.396 513.386 180.808L507.405 259.978Z" fill="#130015"/>
<path d="M460.645 201.851L434.589 196.565L446.802 167.622C447.533 164.819 449.346 162.42 451.843 160.951C454.341 159.483 457.318 159.065 460.123 159.789C462.928 160.513 465.332 162.32 466.806 164.814C468.281 167.308 468.706 170.285 467.988 173.091L460.645 201.851Z" fill="#130015"/>
<path d="M494.016 211.666L492.45 175.758C491.262 169.008 495.126 162.627 501.069 161.584C507.014 160.544 512.818 165.226 514.011 172.026L519.899 205.579L494.016 211.666Z" fill="#130015"/>
<path d="M505.479 255.679C514.792 291.146 515.808 336.239 513.295 385.426L500.79 383.863L478.123 290.07L465.617 385.426L451.548 384.644C447.345 333.035 443.253 288.729 449.985 259.587L505.479 255.679Z" fill="#2F2E41"/>
<path d="M491.077 141.553C487.495 145.367 480.844 143.32 480.378 138.108C480.341 137.703 480.344 137.296 480.386 136.892C480.626 134.583 481.96 132.488 481.641 130.05C481.568 129.443 481.342 128.865 480.984 128.37C478.13 124.549 471.431 130.08 468.738 126.62C467.086 124.499 469.027 121.159 467.76 118.788C466.087 115.659 461.133 117.203 458.026 115.489C454.569 113.582 454.776 108.278 457.051 105.052C459.827 101.118 464.692 99.0186 469.497 98.716C474.302 98.4135 479.074 99.7124 483.56 101.461C488.657 103.447 493.712 106.192 496.848 110.674C500.663 116.124 501.03 123.452 499.122 129.825C497.961 133.701 494.001 138.437 491.077 141.553Z" fill="#2F2E41"/>
<path d="M656.537 406.158H79.4799C79.2336 406.157 78.9976 406.059 78.8236 405.885C78.6497 405.71 78.552 405.474 78.552 405.228C78.552 404.981 78.6497 404.745 78.8236 404.57C78.9976 404.396 79.2336 404.298 79.4799 404.297H656.537C656.784 404.298 657.02 404.396 657.194 404.57C657.368 404.745 657.465 404.981 657.465 405.228C657.465 405.474 657.368 405.71 657.194 405.885C657.02 406.059 656.784 406.157 656.537 406.158Z" fill="#3F3D56"/>
<path d="M366.575 320.851H264.965C263.627 320.858 262.341 320.334 261.388 319.394C260.436 318.454 259.895 317.175 259.885 315.836V89.0373C259.895 87.6991 260.436 86.4197 261.388 85.4797C262.341 84.5397 263.627 84.0158 264.965 84.023H366.575C367.913 84.0158 369.199 84.5397 370.152 85.4797C371.104 86.4197 371.645 87.6991 371.655 89.0373V315.836C371.645 317.175 371.104 318.454 370.152 319.394C369.199 320.334 367.913 320.858 366.575 320.851Z" fill="white"/>
<path d="M371.655 157.408H259.885V158.971H371.655V157.408Z" fill="#CCCCCC"/>
<path d="M372.046 246.598H260.276V248.161H372.046V246.598Z" fill="#CCCCCC"/>
<path d="M296.621 84.0229H295.057V321.632H296.621V84.0229Z" fill="#CCCCCC"/>
<path d="M335.701 84.0229H334.138V321.632H335.701V84.0229Z" fill="#CCCCCC"/>
</g>
<defs>
<clipPath id="clip0_34_332">
<rect width="680" height="406.545" fill="white"/>
</clipPath>
</defs>
</svg>
